<mxfile host="Electron" modified="2024-04-07T20:01:52.758Z" agent="Mozilla/5.0 (X11; Linux x86_64) AppleWebKit/537.36 (KHTML, like Gecko) draw.io/23.0.2 Chrome/120.0.6099.109 Electron/28.1.0 Safari/537.36" etag="mMq8bOeM654rlfv8NNdr" version="23.0.2" type="device">
  <diagram id="C5RBs43oDa-KdzZeNtuy" name="Page-1">
    <mxGraphModel dx="823" dy="561" grid="1" gridSize="10" guides="1" tooltips="1" connect="1" arrows="1" fold="1" page="1" pageScale="1" pageWidth="827" pageHeight="1169" math="0" shadow="0">
      <root>
        <mxCell id="WIyWlLk6GJQsqaUBKTNV-0" />
        <mxCell id="WIyWlLk6GJQsqaUBKTNV-1" parent="WIyWlLk6GJQsqaUBKTNV-0" />
        <mxCell id="X3RbKcEjEHw9TLbkUnqN-13" style="edgeStyle=orthogonalEdgeStyle;rounded=0;orthogonalLoop=1;jettySize=auto;html=1;exitX=0.5;exitY=1;exitDx=0;exitDy=0;entryX=0.5;entryY=0;entryDx=0;entryDy=0;" edge="1" parent="WIyWlLk6GJQsqaUBKTNV-1" source="WIyWlLk6GJQsqaUBKTNV-3" target="X3RbKcEjEHw9TLbkUnqN-0">
          <mxGeometry relative="1" as="geometry" />
        </mxCell>
        <mxCell id="WIyWlLk6GJQsqaUBKTNV-3" value="Start" style="rounded=1;whiteSpace=wrap;html=1;fontSize=12;glass=0;strokeWidth=1;shadow=0;" parent="WIyWlLk6GJQsqaUBKTNV-1" vertex="1">
          <mxGeometry x="160" y="20" width="120" height="40" as="geometry" />
        </mxCell>
        <mxCell id="X3RbKcEjEHw9TLbkUnqN-5" style="edgeStyle=orthogonalEdgeStyle;rounded=0;orthogonalLoop=1;jettySize=auto;html=1;exitX=1;exitY=0.5;exitDx=0;exitDy=0;entryX=0.5;entryY=0;entryDx=0;entryDy=0;" edge="1" parent="WIyWlLk6GJQsqaUBKTNV-1" source="WIyWlLk6GJQsqaUBKTNV-6" target="X3RbKcEjEHw9TLbkUnqN-4">
          <mxGeometry relative="1" as="geometry" />
        </mxCell>
        <mxCell id="X3RbKcEjEHw9TLbkUnqN-6" value="ДА" style="edgeLabel;html=1;align=center;verticalAlign=middle;resizable=0;points=[];" vertex="1" connectable="0" parent="X3RbKcEjEHw9TLbkUnqN-5">
          <mxGeometry y="-2" relative="1" as="geometry">
            <mxPoint as="offset" />
          </mxGeometry>
        </mxCell>
        <mxCell id="X3RbKcEjEHw9TLbkUnqN-10" style="edgeStyle=orthogonalEdgeStyle;rounded=0;orthogonalLoop=1;jettySize=auto;html=1;exitX=0;exitY=0.5;exitDx=0;exitDy=0;" edge="1" parent="WIyWlLk6GJQsqaUBKTNV-1" source="WIyWlLk6GJQsqaUBKTNV-6">
          <mxGeometry relative="1" as="geometry">
            <mxPoint x="120" y="650" as="targetPoint" />
          </mxGeometry>
        </mxCell>
        <mxCell id="X3RbKcEjEHw9TLbkUnqN-11" value="НЕТ" style="edgeLabel;html=1;align=center;verticalAlign=middle;resizable=0;points=[];" vertex="1" connectable="0" parent="X3RbKcEjEHw9TLbkUnqN-10">
          <mxGeometry x="-0.1862" relative="1" as="geometry">
            <mxPoint as="offset" />
          </mxGeometry>
        </mxCell>
        <mxCell id="WIyWlLk6GJQsqaUBKTNV-6" value="len ( v ) &amp;lt; 4" style="rhombus;whiteSpace=wrap;html=1;shadow=0;fontFamily=Helvetica;fontSize=12;align=center;strokeWidth=1;spacing=6;spacingTop=-4;" parent="WIyWlLk6GJQsqaUBKTNV-1" vertex="1">
          <mxGeometry x="162.5" y="605" width="115" height="90" as="geometry" />
        </mxCell>
        <mxCell id="WIyWlLk6GJQsqaUBKTNV-7" value="End" style="rounded=1;whiteSpace=wrap;html=1;fontSize=12;glass=0;strokeWidth=1;shadow=0;" parent="WIyWlLk6GJQsqaUBKTNV-1" vertex="1">
          <mxGeometry x="157.5" y="960" width="120" height="40" as="geometry" />
        </mxCell>
        <mxCell id="X3RbKcEjEHw9TLbkUnqN-0" value="Прочитать файл со списком построчно в динамический массив (срез) &quot;&lt;b&gt;a&lt;/b&gt;&quot; типа string" style="rounded=0;whiteSpace=wrap;html=1;" vertex="1" parent="WIyWlLk6GJQsqaUBKTNV-1">
          <mxGeometry x="140" y="90" width="160" height="60" as="geometry" />
        </mxCell>
        <mxCell id="X3RbKcEjEHw9TLbkUnqN-15" style="edgeStyle=orthogonalEdgeStyle;rounded=0;orthogonalLoop=1;jettySize=auto;html=1;exitX=0.5;exitY=1;exitDx=0;exitDy=0;entryX=0.5;entryY=0;entryDx=0;entryDy=0;" edge="1" parent="WIyWlLk6GJQsqaUBKTNV-1" source="X3RbKcEjEHw9TLbkUnqN-1" target="X3RbKcEjEHw9TLbkUnqN-2">
          <mxGeometry relative="1" as="geometry" />
        </mxCell>
        <mxCell id="X3RbKcEjEHw9TLbkUnqN-1" value="объявить результирующий пустой динамический массив (срез) &quot;&lt;b&gt;r&lt;/b&gt;&quot; типа string" style="rounded=0;whiteSpace=wrap;html=1;" vertex="1" parent="WIyWlLk6GJQsqaUBKTNV-1">
          <mxGeometry x="140" y="290" width="160" height="60" as="geometry" />
        </mxCell>
        <mxCell id="X3RbKcEjEHw9TLbkUnqN-8" style="edgeStyle=orthogonalEdgeStyle;rounded=0;orthogonalLoop=1;jettySize=auto;html=1;exitX=0.5;exitY=1;exitDx=0;exitDy=0;entryX=0.5;entryY=0;entryDx=0;entryDy=0;" edge="1" parent="WIyWlLk6GJQsqaUBKTNV-1" source="X3RbKcEjEHw9TLbkUnqN-2" target="X3RbKcEjEHw9TLbkUnqN-3">
          <mxGeometry relative="1" as="geometry" />
        </mxCell>
        <mxCell id="X3RbKcEjEHw9TLbkUnqN-2" value="Идем по исходному массиву &quot;a&quot;&lt;br&gt;&lt;b&gt;for v = range a&lt;/b&gt;" style="shape=hexagon;perimeter=hexagonPerimeter2;whiteSpace=wrap;html=1;fixedSize=1;" vertex="1" parent="WIyWlLk6GJQsqaUBKTNV-1">
          <mxGeometry x="140" y="390" width="160" height="80" as="geometry" />
        </mxCell>
        <mxCell id="X3RbKcEjEHw9TLbkUnqN-9" style="edgeStyle=orthogonalEdgeStyle;rounded=0;orthogonalLoop=1;jettySize=auto;html=1;exitX=0.5;exitY=1;exitDx=0;exitDy=0;entryX=0.5;entryY=0;entryDx=0;entryDy=0;" edge="1" parent="WIyWlLk6GJQsqaUBKTNV-1" source="X3RbKcEjEHw9TLbkUnqN-3" target="WIyWlLk6GJQsqaUBKTNV-6">
          <mxGeometry relative="1" as="geometry" />
        </mxCell>
        <mxCell id="X3RbKcEjEHw9TLbkUnqN-3" value="Приводим тип символа в строке &quot;v&quot; из &quot;byte&quot; в &quot;rune&quot;&lt;br&gt;&lt;b&gt;v = []rune (v)&lt;/b&gt;" style="rounded=0;whiteSpace=wrap;html=1;" vertex="1" parent="WIyWlLk6GJQsqaUBKTNV-1">
          <mxGeometry x="130" y="500" width="180" height="60" as="geometry" />
        </mxCell>
        <mxCell id="X3RbKcEjEHw9TLbkUnqN-7" style="edgeStyle=orthogonalEdgeStyle;rounded=0;orthogonalLoop=1;jettySize=auto;html=1;exitX=0.5;exitY=1;exitDx=0;exitDy=0;entryX=0;entryY=0.5;entryDx=0;entryDy=0;" edge="1" parent="WIyWlLk6GJQsqaUBKTNV-1" source="X3RbKcEjEHw9TLbkUnqN-4" target="X3RbKcEjEHw9TLbkUnqN-2">
          <mxGeometry relative="1" as="geometry" />
        </mxCell>
        <mxCell id="X3RbKcEjEHw9TLbkUnqN-4" value="Добавить в массив &quot;r&quot; символ &quot;v&quot;" style="rounded=0;whiteSpace=wrap;html=1;" vertex="1" parent="WIyWlLk6GJQsqaUBKTNV-1">
          <mxGeometry x="240" y="720" width="120" height="60" as="geometry" />
        </mxCell>
        <mxCell id="X3RbKcEjEHw9TLbkUnqN-17" value="Выводим результирующий массив &quot;r&quot;" style="shape=parallelogram;perimeter=parallelogramPerimeter;whiteSpace=wrap;html=1;fixedSize=1;" vertex="1" parent="WIyWlLk6GJQsqaUBKTNV-1">
          <mxGeometry x="160" y="860" width="120" height="60" as="geometry" />
        </mxCell>
        <mxCell id="X3RbKcEjEHw9TLbkUnqN-20" style="edgeStyle=orthogonalEdgeStyle;rounded=0;orthogonalLoop=1;jettySize=auto;html=1;exitX=0.5;exitY=1;exitDx=0;exitDy=0;" edge="1" parent="WIyWlLk6GJQsqaUBKTNV-1" source="X3RbKcEjEHw9TLbkUnqN-18" target="X3RbKcEjEHw9TLbkUnqN-1">
          <mxGeometry relative="1" as="geometry" />
        </mxCell>
        <mxCell id="X3RbKcEjEHw9TLbkUnqN-18" value="Выводим результирующий массив &quot;a&quot;" style="shape=parallelogram;perimeter=parallelogramPerimeter;whiteSpace=wrap;html=1;fixedSize=1;" vertex="1" parent="WIyWlLk6GJQsqaUBKTNV-1">
          <mxGeometry x="157.5" y="180" width="120" height="60" as="geometry" />
        </mxCell>
        <mxCell id="X3RbKcEjEHw9TLbkUnqN-19" style="edgeStyle=orthogonalEdgeStyle;rounded=0;orthogonalLoop=1;jettySize=auto;html=1;exitX=0.5;exitY=1;exitDx=0;exitDy=0;entryX=0.548;entryY=-0.017;entryDx=0;entryDy=0;entryPerimeter=0;" edge="1" parent="WIyWlLk6GJQsqaUBKTNV-1" source="X3RbKcEjEHw9TLbkUnqN-0" target="X3RbKcEjEHw9TLbkUnqN-18">
          <mxGeometry relative="1" as="geometry" />
        </mxCell>
        <mxCell id="X3RbKcEjEHw9TLbkUnqN-21" style="edgeStyle=orthogonalEdgeStyle;rounded=0;orthogonalLoop=1;jettySize=auto;html=1;exitX=1;exitY=0.5;exitDx=0;exitDy=0;entryX=0.55;entryY=0.029;entryDx=0;entryDy=0;entryPerimeter=0;" edge="1" parent="WIyWlLk6GJQsqaUBKTNV-1" source="X3RbKcEjEHw9TLbkUnqN-2" target="X3RbKcEjEHw9TLbkUnqN-17">
          <mxGeometry relative="1" as="geometry">
            <Array as="points">
              <mxPoint x="370" y="430" />
              <mxPoint x="370" y="820" />
              <mxPoint x="226" y="820" />
            </Array>
          </mxGeometry>
        </mxCell>
        <mxCell id="X3RbKcEjEHw9TLbkUnqN-22" style="edgeStyle=orthogonalEdgeStyle;rounded=0;orthogonalLoop=1;jettySize=auto;html=1;exitX=0.5;exitY=1;exitDx=0;exitDy=0;entryX=0.536;entryY=-0.111;entryDx=0;entryDy=0;entryPerimeter=0;" edge="1" parent="WIyWlLk6GJQsqaUBKTNV-1" source="X3RbKcEjEHw9TLbkUnqN-17" target="WIyWlLk6GJQsqaUBKTNV-7">
          <mxGeometry relative="1" as="geometry" />
        </mxCell>
      </root>
    </mxGraphModel>
  </diagram>
</mxfile>
